<?xml version="1.0" encoding="utf-8"?>
<svg version="1.0" id="Layer_1" xmlns="http://www.w3.org/2000/svg" xmlns:xlink="http://www.w3.org/1999/xlink" x="0px" y="0px"
	 width="630px" height="253px" viewBox="0 0 630 253"
	 >
  <g fill="#000">
<path d="M171,184.9c-7.3-0.1-13.3,5.8-13.4,13.1c-0.1,7.4,5.9,13.5,13.3,13.5c7.3,0,13.2-5.9,13.3-13.2
	C184.2,190.9,178.4,185,171,184.9z"/>
<path d="M290.8,210.4c-6.5,0-11.7,5.2-11.8,11.7c0,6.5,5.4,11.9,11.9,11.9c6.6,0,11.8-5.4,11.7-12
	C302.5,215.5,297.4,210.4,290.8,210.4z"/>
<path d="M339.1,210.4c-6.6-0.1-12,5.1-12,11.7c0,6.5,5.4,11.9,11.9,11.9c6.5,0,11.7-5.3,11.7-11.7
	C350.7,215.7,345.6,210.5,339.1,210.4z"/>
<path d="M386.9,211.1c-6,0-11,4.9-11,11c0,6.1,4.9,11,11,11c6.1,0,11-4.9,11-11C397.9,216.2,392.9,211.1,386.9,211.1z"/>
<path d="M242.8,211.1c-6.1,0-10.9,5-10.9,11.1c0,6.1,4.9,10.9,11,10.9c6.1,0,11-5,11-11C253.8,216.1,248.8,211.1,242.8,211.1z"/>
<path d="M122.7,187.7c-5.7,0.1-10.3,4.7-10.3,10.4c0,5.8,4.7,10.5,10.6,10.4c5.7-0.1,10.3-4.7,10.3-10.4
	C133.3,192.3,128.5,187.6,122.7,187.7z"/>
<path d="M507,187.7c-5.8-0.1-10.6,4.6-10.5,10.5c0,5.8,4.7,10.5,10.6,10.4c5.7-0.1,10.3-4.7,10.3-10.5
	C517.3,192.4,512.7,187.8,507,187.7z"/>
<path d="M459,64.1c5.5,0,10-4.4,10-9.8c0.1-5.6-4.4-10.1-10-10.1c-5.5,0-9.9,4.4-9.9,9.9C449.2,59.6,453.6,64.1,459,64.1z"/>
<path d="M435.1,212.8c-5.3-0.1-9.6,4-9.7,9.2c-0.1,5.1,4,9.4,9.1,9.6c5.2,0.2,9.6-3.9,9.8-9.1C444.4,217.2,440.4,212.9,435.1,212.8z
	"/>
<path d="M339,37.9c4.3,0,7.8-3.3,7.8-7.6c0.1-4.3-3.4-7.8-7.6-7.9c-4.3-0.1-7.8,3.4-7.9,7.7C331.3,34.3,334.7,37.8,339,37.9z"/>
<path d="M291,37.9c4.3,0,7.8-3.3,7.8-7.7c0-4.3-3.4-7.8-7.7-7.8c-4.3,0-7.8,3.4-7.8,7.7C283.3,34.4,286.7,37.8,291,37.9z"/>
<path d="M387.2,37.2c3.7-0.1,6.8-3.2,6.9-7c0-3.9-3.1-7-7-7c-3.9,0-7,3.1-6.9,7C380.2,34.1,383.4,37.2,387.2,37.2z"/>
<path d="M123.3,61.2c3.7-0.1,6.8-3.2,6.9-7c0-3.9-3.1-7-7-7c-3.9,0-7,3.1-6.9,7C116.2,58.1,119.4,61.3,123.3,61.2z"/>
<path d="M146.8,215.2c-3.9,0-7,3.2-7,7c0.1,3.7,3.2,6.8,6.9,6.9c3.9,0.1,7-3.1,7-7C153.8,218.2,150.8,215.2,146.8,215.2z"/>
<path d="M482.9,215.2c-3.9,0-7.1,3.1-7,7c0,3.8,3.3,7,7.1,7c3.8-0.1,6.8-3.1,6.8-6.9C489.8,218.3,486.8,215.2,482.9,215.2z"/>
<path d="M554.9,191.8c-3.5,0-6.4,2.8-6.3,6.4c0,3.6,2.9,6.3,6.5,6.2c3.5-0.1,6.2-2.9,6.1-6.4C561.2,194.6,558.3,191.8,554.9,191.8z"
	/>
<path d="M74.9,191.9c-3.4,0-6.2,2.8-6.2,6.3c0,3.5,2.7,6.2,6.3,6.2c3.5,0,6.3-2.9,6.2-6.3C81,194.7,78.2,191.9,74.9,191.9z"/>
<path d="M314.9,240.2c-3.3,0-6,2.5-6.1,5.8c-0.1,3.3,2.8,6.2,6,6.2c3.3,0,5.9-2.7,5.9-6C320.8,242.9,318.3,240.2,314.9,240.2z"/>
<path d="M266.7,240.6c-3,0.1-5.5,2.5-5.5,5.5c0,3.1,2.5,5.7,5.6,5.7c3.1,0,5.6-2.5,5.6-5.7C272.4,242.9,269.9,240.5,266.7,240.6z"/>
<path d="M362.9,240.6c-3.1,0-5.7,2.4-5.7,5.6c0,3.1,2.6,5.6,5.7,5.6c3.1,0,5.6-2.6,5.5-5.7C368.4,243,366,240.6,362.9,240.6z"/>
<path d="M435,35.5c3,0,5.4-2.2,5.4-5.2c0-3-2.3-5.4-5.2-5.4c-2.9,0-5.4,2.3-5.4,5.3C429.7,33,432,35.4,435,35.5z"/>
<path d="M410.9,241.7c-2.4,0-4.5,1.9-4.5,4.4c-0.1,2.5,2.1,4.6,4.6,4.6c2.4-0.1,4.4-2.1,4.4-4.5
	C415.3,243.7,413.3,241.7,410.9,241.7z"/>
<path d="M530.9,218.6c-1.9,0-3.5,1.5-3.6,3.4c-0.1,1.9,1.6,3.7,3.6,3.8c1.9,0,3.5-1.5,3.6-3.4C534.5,220.2,533,218.6,530.9,218.6z"
	/>
<path d="M99.1,218.6c-2-0.1-3.8,1.4-3.8,3.4c-0.1,1.9,1.7,3.7,3.6,3.7c1.9,0,3.5-1.6,3.5-3.5C102.5,220.3,101,218.7,99.1,218.6z"/>
<path d="M627.1,123c-1.7,0-3,1.3-3.1,3c-0.1,1.8,1.3,3.3,3,3.3c1.7,0,3.2-1.5,3.2-3.2C630.3,124.4,628.8,123,627.1,123z"/>
<path d="M147,33.3c1.7,0.1,3.2-1.4,3.3-3.1c0-1.7-1.4-3.2-3.2-3.2c-1.7,0-3,1.2-3.1,2.9C143.9,31.8,145.3,33.3,147,33.3z"/>
<path d="M3.1,123c-1.7,0-3,1.3-3.1,3c-0.1,1.8,1.3,3.3,3,3.3c1.7,0,3.2-1.4,3.2-3.1C6.3,124.4,4.8,123,3.1,123z"/>
<path d="M483.2,33.3c1.7-0.1,3.2-1.6,3.1-3.3c-0.1-1.8-1.6-3.1-3.4-3c-1.7,0.1-2.9,1.4-2.9,3.1C480,32,481.5,33.4,483.2,33.3z"/>
<path d="M555.2,57.3c1.7,0,3.2-1.6,3.1-3.3c-0.1-1.8-1.5-3.1-3.3-3c-1.8,0.1-3,1.5-2.9,3.4C552.1,56.1,553.5,57.4,555.2,57.3z"/>
<path d="M459,243.5c-1.5-0.1-2.8,1.1-2.8,2.5c0,1.4,1.3,2.8,2.7,2.7c1.4,0,2.5-1.2,2.6-2.6C461.5,244.7,460.5,243.6,459,243.5z"/>
<path d="M170.9,243.5c-1.5,0-2.8,1.2-2.7,2.7c0.1,1.3,1.3,2.6,2.6,2.6c1.5,0,2.7-1.2,2.6-2.8C173.4,244.6,172.4,243.6,170.9,243.5z"
	/>
<path d="M315.2,7.8c0.8,0,1.7-0.9,1.6-1.8c-0.1-0.9-0.6-1.5-1.6-1.5c-1-0.1-1.7,0.6-1.7,1.6C313.5,7,314.3,7.9,315.2,7.8z"/>
<path d="M602.9,196.5c-0.9,0-1.7,0.8-1.7,1.6c0,0.8,0.9,1.7,1.8,1.6c0.9-0.1,1.6-0.9,1.5-1.8C604.4,197.1,603.8,196.6,602.9,196.5z"
	/>
<path d="M26.8,196.5c-0.9,0.1-1.5,0.6-1.6,1.5c-0.1,0.8,0.7,1.7,1.6,1.8c0.9,0,1.7-0.8,1.7-1.7C28.5,197.2,27.8,196.5,26.8,196.5z"
	/>
<path d="M2.9,172.5c-0.9,0-1.7,0.8-1.7,1.6c0,0.8,0.9,1.7,1.7,1.6c0.9,0,1.6-0.9,1.5-1.8C4.4,173.1,3.8,172.6,2.9,172.5z"/>
<path d="M626.8,172.5c-0.9,0.1-1.5,0.6-1.6,1.5c-0.1,0.8,0.7,1.7,1.6,1.8c0.9,0,1.7-0.8,1.7-1.7
	C628.5,173.2,627.8,172.5,626.8,172.5z"/>
<path d="M3.1,79.2c0.5-0.1,0.9-0.6,1.6-1.2c-0.8-0.5-1.2-0.9-1.6-1c-0.7-0.1-1.2,0.5-1.1,1.2C2.2,78.7,2.8,79.3,3.1,79.2z"/>
<path d="M532.2,30.2c0-0.3-0.6-1-1-1c-0.4,0-1.1,0.5-1.1,0.8c-0.1,0.5,0.4,1,0.8,2C531.6,31,532.1,30.6,532.2,30.2z"/>
<path d="M99,31.2c0.5-0.1,1-0.6,1.2-1.1c0.1-0.3-0.5-0.8-1-1.4c-0.5,0.6-1,0.9-1.2,1.3C97.8,30.7,98.3,31.3,99,31.2z"/>
<path d="M627.1,79.2c0.5-0.1,0.9-0.6,1.7-1.3c-1-0.4-1.5-0.9-2-0.8c-0.3,0-0.8,0.8-0.8,1.1C626.1,78.7,626.8,79.3,627.1,79.2z"/>
<path d="M50.9,221.1c-0.5,0.2-0.8,0.8-1.1,1.2c0.4,0.3,0.8,1,1.1,1c0.5,0,0.9-0.6,1.6-1.2C51.7,221.6,51.2,221,50.9,221.1z"/>
<path d="M578.9,221.1c-0.4,0.1-1.1,0.6-1.1,0.9c0,0.5,0.5,1,1,1.7c0.6-0.7,1-1.1,1.1-1.5C580.1,221.5,579.6,221,578.9,221.1z"/>
<path d="M411.1,7.2c0.5-0.1,0.9-0.6,1.6-1.1c-0.8-0.5-1.2-1-1.6-1c-0.7-0.1-1.3,0.4-1.1,1.2C410.2,6.7,410.8,7.3,411.1,7.2z"/>
<path d="M363,7.2c0.5,0,1-0.5,1.7-1c-0.7-0.6-1.1-1-1.5-1.1c-0.7-0.2-1.3,0.3-1.2,1.1C362.1,6.6,362.7,7.2,363,7.2z"/>
<path d="M267.1,7.2c0.5-0.1,0.9-0.6,1.6-1.1c-0.8-0.5-1.2-1-1.6-1c-0.7-0.1-1.3,0.4-1.1,1.2C266.2,6.7,266.8,7.3,267.1,7.2z"/>
<path d="M121.8,246.2c0.1,0.4,0.7,0.9,1.2,1.1c0.3,0.1,0.7-0.6,1.3-1.1c-0.6-0.5-1-0.9-1.4-1C122.2,244.9,121.6,245.5,121.8,246.2z"
	/>
<path d="M505.8,246.2c0.1,0.4,0.7,0.9,1.2,1.1c0.3,0.1,0.7-0.6,1.3-1.1c-0.6-0.5-1-0.9-1.4-1C506.2,244.9,505.6,245.5,505.8,246.2z"
	/>
<path d="M291.1,90.2c-3.6,6.1-7.1,14.6-9.9,23.8c-6.2,20.9-6.4,44.4-2.9,49.4c0.6,0.9,1.4,1.3,2.3,1.4c0.4,0,0.8-0.1,1.2-0.2
	c3.6-1.3,9.5-9.5,14.8-28.9c2.2-8,3.8-15.2,5-22C296.4,108.4,292.3,99.3,291.1,90.2z"/>
<path d="M134.4,133.4c2.8-19.3,1.9-30.5-0.3-33.3c-0.4-0.6-0.9-0.9-1.4-0.8c-0.1,0-0.2,0-0.3,0c-4.6,0.8-12.2,15.3-14.9,32
	c-2.2,13.7,0.2,25.1,3.3,29.3c0.7,0.9,1.4,1.4,2.2,1.4c0,0,0.1,0,0.1,0C126.6,162,130.8,158.1,134.4,133.4z M122.9,134.8
	C122.8,134.8,122.8,134.8,122.9,134.8c0-0.2,0-0.3,0-0.5c1.2-7.3,3.3-13.8,5.4-18.7c0.8-0.3,1.6-0.7,2.3-1.1
	c-0.1,4.2-0.6,9.5-1.5,16c-0.3,1.9-0.6,3.7-0.8,5.3C126.6,135.1,124.8,134.8,122.9,134.8z"/>
<path d="M209.3,153.1c0.4,3.6,1.5,9.5,3.9,11.6c-0.1-5-0.5-10.3-1-15.4c-0.8-6.7-2.3-11.8-3.1-13.6
	C208.5,138.3,208.6,147.2,209.3,153.1z"/>
<path d="M401.1,120.5c4.7,0,9.6-8,14.1-16.4c7.1-13.3,10.5-25.5,9.6-27.1c-0.2-0.3-0.4-0.4-0.8-0.4c-0.3,0-0.5,0-0.9,0.2
	c-5,1.7-16.5,16-24.6,38.6c0,0,0,0,0,0c-0.4,1.1-0.8,2.2-1.1,3.2C398.6,119.9,399.9,120.5,401.1,120.5z"/>
<path d="M302.2,81.7C302.2,81.7,302.2,81.7,302.2,81.7c-0.4,0-1.2,1.7-1.4,5.3c-0.3,4.4,0.4,10.3,2.3,14.5
	c0.6-6.8,0.8-11.8,0.4-15.4C303.1,82.8,302.4,81.7,302.2,81.7z"/>
<path d="M178.4,104.1C178.4,104.1,178.4,104.1,178.4,104.1c-0.3,1.6-0.6,3.1-0.8,4.6c12.7-24.2,16.7-55.2,16.1-61.7
	C191,51.1,183.9,73.9,178.4,104.1z"/>
<path d="M213.3,175.3c-3.4-1.1-6.2-3.7-8.6-7.7c-3.2,32.5-2.1,56.1,1.1,62c0,0,0,0,0,0c0.1,0.2,0.2,0.3,0.3,0.4c0,0,0.1,0,0.1,0
	C209,229.6,212.9,205.1,213.3,175.3z"/>
<path d="M613.6,95.6c-0.6-5.6-2.2-10.4-5.4-15.5c0,0,0,0,0-0.1c-1.6-2.4-3.9-4.1-6.9-4.9c-2-0.5-4.3-0.6-6.8-0.2
	c-1.8,0.3-5.4,1.1-10.4,3.8c0-0.2,0.1-0.4,0.1-0.6c0.1-2.7-2.1-4.9-4.8-5c-2.8-0.1-5.1,2.2-5.1,4.9c0,2.2,1.5,4,3.5,4.7
	c-4.1,3-8.6,7.1-13.6,12.8c-1-1.3-2.2-2.4-3.6-3.2c1.8-5.9,2.6-11.4,2.1-15.8c-0.6-5.2-3-8.6-6.7-9.5c-0.1,0-0.2,0-0.3-0.1
	c-4.2-0.8-10.3,2-16,5.9c-1.4-2.2-3.7-3.9-6.4-4.4c-1.3-4.3-3.7-7.1-7-7.7c-0.1,0-0.2,0-0.3-0.1c-5.4-0.8-13.4,4.7-20,10.8
	c0.1-2.8,0-5.4-0.4-7.8c-0.2-1.1-0.4-2.1-0.7-3c0.8,0.3,1.6,0.4,2.5,0.4c3.8,0,7-3.3,6.9-7.1c-0.1-3.8-3.1-6.8-6.9-6.8
	c-4,0-7,3-7,6.9c0,0.5,0.1,1.1,0.2,1.6c-0.2-0.1-0.4-0.1-0.6-0.1c0,0-0.1,0-0.1,0c0,0,0,0,0,0c-2.8-0.3-5.9,1.9-8.5,6.2
	c-0.9,1.4-1.8,2.9-2.7,4.4c-1.6-0.7-3.4-1.1-5.3-1.1c-7.4,0-13.2,5.8-13.2,13.2c0,4.6,2.3,8.6,5.9,11c-0.8,1.6-1.6,3.2-2.4,4.7
	c-0.6-1-1.2-1.9-2-2.8c-4.8-5.4-12.5-7-19.1-4c-3.3,1.5-5.9,3.9-7.6,7c-2.8,5-2.6,10.2-0.2,15.9c-3.2-1.6-6.2-2.4-9.3-2.4
	c1.8-5.1,3.2-10.1,4-15c6.4-1.8,11.1-7.8,11.1-14.8c-0.1-8.2-6.6-14.7-14.8-15c-1.5-3-3.4-5.8-5.6-8.5c0,0,0-0.1-0.1-0.1
	c-2.1-2.4-4.6-3.8-7.4-4.1c-1.6-4.7-6-8.2-11.3-8.2c-6.6,0-12.1,5.5-12.1,12.1c0,3.1,1.2,5.9,3.2,8c-1.1,1.3-2.3,2.8-3.6,4.5
	c-0.3-0.3-0.7-0.7-1-1c-4.2-3.6-9.8-4.7-14.9-3.3c-1.6-4.6-3.9-8-6.6-9.8C375.4,46,369.8,41,363,41c-6.7,0-12.2,5.1-12.9,11.7
	c-1.2-1.2-2.6-1.9-4.1-1.8c0,0,0,0-0.1,0c-2.9,0.2-5.7,3-7.6,7.9c-0.3,0.9-0.7,1.7-1,2.5c-2.2,0.3-4.4,1.1-6.6,2.4
	c-7.6,4.6-9.7,11.6-7.5,20.4c-1.6-0.6-3.1-1.1-4.7-1.3c-1.2-4.5-3-7.8-5-11.1c-0.9-1.4-1.7-2.8-2.3-4.2c-0.1-0.2-0.1-0.3-0.2-0.5
	c1.3,0.4,2.6,0.6,4,0.6c7.6,0.1,13.6-5.9,13.6-13.5c0-7.4-6-13.5-13.4-13.5c-7.5,0-13.6,6.1-13.6,13.5c0,0.5,0,0.9,0.1,1.3
	c-1.6-0.7-3.4-1-5.3-0.8c-0.8,0.1-1.5,0.2-2.4,0.4c-4,0.9-7.9,3.4-11.7,7.4c0-2.6-0.4-5.7-1.8-9.1c0-0.1,0-0.1-0.1-0.2
	c-0.1-0.3-0.2-0.5-0.4-0.8c-0.6-4.4-3.3-8-7.1-9.9c1.1-9.6,0.5-17.9-1.9-25.5c0-0.1,0-0.1-0.1-0.2c-1.6-5-4.6-8-7.9-8
	c-0.3,0-0.6,0-0.9,0.1c-1.8,0.3-5.2,1.7-7.5,8.1c-1.3,3.1-2.8,7.6-4.7,13.5c0-0.1,0-0.2,0-0.4c-0.1-3.8-3.1-6.8-6.9-6.8
	c-1.6,0-3.1,0.5-4.3,1.4c-0.1-6.1-0.9-11.6-2.7-16.8c-1.6-4.9-4.8-7.9-8.4-7.8c-0.4,0-0.8,0.1-1.2,0.1c0,0,0,0,0,0
	c-2.5,0.5-4.8,2.6-6.4,5.6c-0.4-0.4-0.7-0.6-1-0.7c-0.7-0.2-1.3,0.3-1.2,1.1c0.1,0.4,0.6,1.1,0.9,1.1c0.2,0,0.4-0.1,0.7-0.3
	c-0.2,0.5-0.5,1.1-0.6,1.7c-1.8,5.4-6.4,19.7-11.4,38.4c0.3-14.8-3.2-26.1-10.8-32.7c-2.8-2.5-5.8-3.4-8.6-2.6
	c-3.4,0.9-6.2,3.8-8.4,8.6c-3.3,7.1-6.5,15.2-9.4,23.8c-5.1,0.4-9.1,4.7-9.1,9.9c0,3.2,1.5,6.1,3.9,7.9c-2.4,9.3-4.4,18.9-5.7,28.6
	c-0.7,0.7-1.3,1.5-1.9,2.3c-0.4-1.7-0.9-3.4-1.5-4.9c2.7-2.4,4.4-5.9,4.4-9.7c0.1-7.3-5.8-13.3-13.2-13.3c-7.4,0-13.3,5.8-13.3,13.2
	c0,0.9,0.1,1.7,0.3,2.6c-3-1.4-6.2-1.7-9.4-0.9c-5.1,0.8-17.8,8.1-25.1,32.2c-0.2,0-0.5,0-0.7,0c-1.4,0-2.7,0.2-3.9,0.6
	c0.5-4.5,1-8.8,1.5-12.9c0.5-4,1-7.9,1.5-11.6c0.3,0,0.6,0.1,1,0.1c5.5,0,9.9-4.4,10-9.8c0.1-5.5-4.2-9.9-9.7-10
	c-0.5-8.8-2.7-15.8-7-20.5c-2.7-3-6-4.2-9.3-3.4c-0.3,0.1-0.6,0.2-1,0.3c-1.9,0.7-4.4,2.6-5.9,6.7c-0.4-0.2-0.8-0.2-1.2-0.2
	c-1.7,0-3,1.3-3.1,3c-0.1,1.7,1.2,3.1,2.8,3.3c-1.9,8.9-3.7,22-4.9,35c-3.5,1.9-5.9,5.6-5.9,9.8c0,3.7,1.9,7,4.7,9
	c-0.1,1.6-0.1,3.1-0.1,4.6c-3.4,1.1-6.6,2.3-9.7,3.6c-1-1.2-2.3-2.1-3.8-2.7c0-0.8,0.1-1.6,0.1-2.4c0.3-5.8,0.6-11.5,0.8-16.6
	c0.3-5.9-0.1-11.3-1.3-16c0.9-0.9,1.4-2.2,1.4-3.5c-0.1-2.6-2.1-4.7-4.7-4.8c-1.4-2.3-3.1-4.2-5.1-5.6c-3-2.1-6.4-2.6-9.5-1.5
	c-0.2,0.1-0.4,0.2-0.6,0.2c-1.6,0.7-4.6,2.6-5.6,6.8c0,0,0,0.1,0,0.1c-1.2,5.6-2,14.3-2.3,23.7c-0.3-0.1-0.7-0.1-1.1-0.1
	c-2.8,0-5.2,2.4-5.2,5.2c0,2.9,2.4,5.3,5.3,5.3c0.3,0,0.5,0,0.7-0.1c0,7.7,0.3,15.2,1,21.1c-0.7,0.1-1.5,0.2-2.4,0.3
	c-0.4,0.1-0.7,0.1-1.1,0.2c-3.7,0.8-4.6,2.4-4.7,3.6c-0.1,1.9,1.5,3.7,4.6,5.6c1.7,1,3.5,1.9,5.3,2.7c0.4,2.1,0.8,3.9,1.3,5.4
	c-1.2-1.6-3-2.5-5.2-2.6c-3.7,0-6.6,2.8-6.6,6.5c0,3.6,2.9,6.6,6.5,6.6c3.6,0,6.5-2.8,6.6-6.5c0-0.2,0-0.3,0-0.5
	c2.3,4.9,6,10,14.2,15.2c1,0.7,2,1.2,3,1.7c-4,0.2-7.2,3.4-7.2,7.4c0,4.1,3.4,7.5,7.5,7.5c4.1,0,7.4-3.3,7.4-7.5
	c0-2.4-1.1-4.5-2.7-5.8c0,0,0.1,0,0.1,0c2.3,0.1,3.3-1,2.7-3.2c-1.5-6.5-2.6-13.6-3.3-21.4c3.3-0.4,7-1.1,10.9-2
	c-2.1,2.2-3.4,5.2-3.4,8.5c0.1,6.7,5.6,12.2,12.3,12.2c1,0,1.9-0.1,2.8-0.3c1.7,2,3.3,3.6,4.8,4.9c1.6,1.4,3.2,2.5,4.7,3.3
	c-0.4,1.1-0.6,2.3-0.6,3.6c-0.1,6.8,5.3,12.5,12,12.6c6.8,0.1,12.4-5.2,12.6-12c0.2-6.8-5.1-12.5-12-12.6c-2.1-0.1-4,0.4-5.8,1.3
	c-0.5-7.6-0.6-15.7-0.4-24.1c1.2,0.6,2.6,1,4,1.2c1.5,9.1,5.4,17.4,10.8,24.1c5.6,6.8,12.3,11.4,18.6,12.1c2,0.2,3.8,0,5.4-0.6
	c0.9,7.4,7.2,13.2,14.8,13.3c6.3,0.1,11.8-3.9,14.1-9.5c2.6-0.9,5.8-3,8.6-7.9c2.9,3.8,6.2,6.6,9.8,8.3c0.7,1.9,1.9,3.7,3.5,5.4
	c1.2,1.3,2.7,2.4,4.2,3.3c0.2,4.9,0.6,9.5,1.1,13.8c0.5,4,1.1,7.8,2,11.5c-2.6,1.6-4.4,4.4-4.5,7.7c-0.2,5.2,4,9.6,9.2,9.7
	c0.3,0,0.6,0,0.9,0c2.2,5,4.8,9.5,7.7,13.7c3.3,4.6,6.2,7.4,8.9,8.2c0.3,0.1,0.5,0.1,0.8,0.2c2.2,0.3,4-1.1,5.3-3
	c0.2,0,0.4,0.1,0.5,0.1c2.4,0,4.4-2,4.5-4.4c0-1.4-0.6-2.7-1.7-3.5c2.3-7.7,4.1-19.1,5.2-32c4.2-2.7,7-7.3,6.9-12.6
	c0-4.7-2.3-8.9-5.7-11.6c0-0.7,0-1.3,0-2c1.1,1.5,2.5,2.9,4.3,4.1c7,5,14.3,4.4,21.9-0.4c-0.5,0.9-0.7,1.2-0.8,1.6
	c-0.2,0.3-0.4,0.7-0.6,1c-2.9,6-2.5,11.9,1.7,17.1c4.2,5.2,9.8,7,16.3,5.4c9.2-2.3,14.1-12.1,10.8-21c-0.2-0.7-1-1.3-0.5-2.2
	c3.1,1.6,6.2,2.6,9.7,2.6c3.4,0,6.5-1.1,9.7-2.5c-3.1,8.6-1.8,15.1,3.7,19.9c5,4.4,12.3,5.5,18.1,2.1c8.7-5.1,10.3-12.7,7-21.7
	c2.3,0.7,4.3,1.6,6.5,1.9c2.3,0.3,4.6,0.2,6.9-0.2c2.1-0.4,4.1-1.3,6.2-2.1c-3.4,8.4-1.9,15.6,4.1,20.3c5.6,4.4,13.5,4.5,19.2,0.2
	c2.8-2.1,4.8-4.9,5.8-8.3c1.5-5,0.3-9.5-2.3-13.9c6.1,3.8,12.2,4.8,18.1,2c0.4,0,0.7,0,1.1,0c0.1,0,0.3,0,0.4,0
	c0.9,0,1.9-0.2,2.8-0.4c-1.4,2.2-2.2,4.9-2.2,7.7c-0.1,8.4,6.5,15,14.8,15c8.3,0,15-6.6,15-14.9c0-8-6.4-14.6-14.3-14.9
	c2.4-2,4.7-4.3,7-7c0.5,5.3,2.9,9.2,7.4,12c5.9,3.7,13.7,3.6,19.1-0.9c1.2-1,2.1-2,3-3c0.1,0.2,0.1,0.4,0.2,0.6
	c0.6,1.5,1.4,2.4,2.1,3c-2.9,2.4-4.7,6.1-4.7,10.1c0,7.4,6,13.4,13.4,13.3c7.3-0.1,13.2-6,13.1-13.4c0-7.4-5.9-13.2-13.3-13.2
	c-0.4,0-0.7,0-1,0.1c0.9-1.3,1.9-3.1,2.9-5.5c0,0,0-0.1,0.1-0.1c1.9-4.8,3.7-9.3,5.6-13.6c1.9-0.9,3.7-2.2,5.3-3.9
	c0.3-0.3,0.5-0.6,0.8-0.9c-0.2,1.1-0.5,2.1-0.7,3.2c-2.5,2.7-4,6.2-4,10.1c0,3.9,1.5,7.4,3.9,10.1c0.1,0.4,0.2,0.7,0.3,1
	c1.2,3.8,3.1,4.5,4.5,4.4c0.3,0,0.6-0.1,0.9-0.2c0.5-0.1,1-0.4,1.6-0.8c1.2,0.3,2.5,0.5,3.8,0.5c8.3,0,15.1-6.8,15.1-15.1
	c0-4.3-1.8-8.2-4.7-10.9c0.6-1.2,1.1-2.3,1.7-3.4c1.5,1.9,3.5,3.4,5.8,4.4c-0.2,2.9-0.2,5.6,0.1,8c1.1,9.3,5.6,14,12.8,13.4
	c2.5-0.2,5.3-1.3,8.3-3.1c2.3,2.4,5.5,4,9.1,3.9c4.4,0,8.2-2.3,10.3-5.8c2.2,1.5,5,2.1,8.3,1.8c0.2,0,0.3,0,0.5-0.1
	c6.2-0.8,13.8-4.7,21.5-10.3c-0.2,0.6-0.3,1.2-0.3,1.8c-0.1,4.2,3.2,7.7,7.4,7.8c4.2,0.1,7.7-3.3,7.7-7.5c0.1-4.2-3.4-7.7-7.6-7.7
	c-0.1,0-0.2,0-0.2,0c4.5-3.8,9-8,13.2-12.5c1.6-1.8,3.2-3.6,4.6-5.5c-0.1,0.5-0.2,0.9-0.2,1.4c0,3.7,2.9,6.7,6.6,6.7
	c3.7,0,6.7-3,6.7-6.7c0-3.5-3-6.6-6.6-6.6c-1.4,0-2.6,0.4-3.7,1.1c2.5-3.9,4.2-7.6,4.5-10.3c0.4-3.5-0.8-5.9-3.2-6.5
	c-0.2,0-0.3-0.1-0.5-0.1c-1-0.1-2,0.1-3.2,0.6C607.2,117.1,614.6,104.2,613.6,95.6z M598.2,136.7c-0.2,2.1-3.4,8.1-8.5,13.7
	c-12.1,13-26.7,23.5-37.1,24.6c-0.1,0-0.3,0-0.4,0c-8.3,0.7-12.5-5.5-11.8-17.6c-8.6,11.4-18.1,19.6-24.7,20
	c-5.6,0.3-9.1-3.1-9.9-9.9c-0.9-7.6,1.8-18.9,7.6-30.4c5.2-10.3,12.8-22.1,19.1-31.3c4.1-6,8.7-12.6,10.1-15.2
	c-1.8,0.3-7.6,3-19.5,16.2c-16.7,18.7-28.8,41.4-41.5,69.9c-1.1,2.4-2.2,3.8-3.2,4c-0.1,0-0.2,0-0.3,0c-0.7,0-1.3-0.6-1.7-2
	c-0.9-2.3-3.3-12,6.6-35.7c4.4-10.5,12-23.9,18.8-35.4c5-8.4,11.3-18.4,12.3-21.5c-1.9,0-10.3,5.3-23.1,22.4
	c-10.5,14-21.9,35.8-34.2,67.2c-0.8,2.1-1.7,3.3-2.5,3.6c-0.2,0.1-0.3,0.1-0.4,0.1c-0.6,0-1.2-0.5-1.6-1.6
	c-2.6-5.9-1.6-16.2,3.2-30.4c6.2-18.6,24.4-57.4,39-80.5c1.4-2.3,2.5-2.7,3.2-2.6c0,0,0,0,0,0c0.7,0.1,1.6,0.7,2,3.3
	c1,6.1-0.2,13.8-3.3,22.7c9-11,21.6-22,27.2-21.1c0.1,0,0.1,0,0.2,0c2.1,0.4,3.5,2.4,4.2,5.8c0.9,4.6,0.2,11-1.7,17.2
	c9.9-10,21.6-18,26.8-17.1c0.1,0,0.1,0,0.2,0c1.9,0.4,3.1,2.2,3.5,5c0.7,5.9-2.3,15.8-7.2,24.5c-3.4,6-8.8,13.6-13.8,21.2
	c-3.9,5.9-8,12-11,17.4c-5.3,9.5-6.7,16.6-6.4,20c0.2,1.9,0.9,2.9,2.3,2.9c0.1,0,0.1,0,0.2,0c4.1-0.3,11.7-10,23.8-28.2
	c2.8-7.9,6.7-15.9,11.8-23.6c18.1-27.5,32.8-31.4,36.8-32.1c2-0.3,3.7-0.3,5.2,0c2,0.5,3.6,1.5,4.7,3.1c2.8,4.4,4.2,8.4,4.7,13.3
	c0.7,6.1-6.2,18.6-17.2,29.1c-8.5,8.3-15.7,12.7-21.3,12.5c-3.7-0.1-6.6-2.3-8.8-6.7c-6.1,11.2-9.2,21.2-8.7,26.9
	c0.2,3.1,1.5,4.8,3.8,4.9c0.3,0,0.5,0,0.8,0c12-0.9,30.2-21.4,37.9-29.4c1-1.1,2-1.7,2.8-1.7c0.1,0,0.1,0,0.2,0
	C598,134.5,598.4,135.4,598.2,136.7z M396.2,181.1c-0.1,0-0.2,0-0.4,0c-8.9,0.1-14.9-8.2-16.9-23c-5.4,12.1-13.5,23.4-21.4,23.3
	c-5.3,0-8.9-3.3-11-9.6c-2.6-7.9-2.4-20,0.8-35c3.3-14.9,9.1-30.6,13.5-42.1c2.4-6.2,5.1-13.1,5.6-15.8c-2.2,0.5-10.8,7.7-20.7,26.1
	c-10,18.5-17.7,46.6-23.5,71.4c-0.4,1.9-1.2,3.1-2,3.4c-0.1,0-0.2,0.1-0.3,0c-0.6,0-1.3-0.5-2.1-2.1c-3.2-7-3.8-17.2-1.3-30.5
	c0.8-4,3.4-17,8.2-32.9c-3.3,2.8-6.8,4.3-10.5,4.4c-0.2,0-0.4,0-0.6,0c-1.7,12-4.9,24.8-8.7,35.3c-3.2,8.6-8.2,19.6-14.7,23.5
	c-1.3,0.8-3.3,1.7-5.7,1.6c-4.1-0.1-9.4-3.1-14.4-14.1c-0.9-1.9-1.7-4-2.4-6.2c-3.1,7.6-9.3,20-18.1,19.6c-0.2,0-0.4,0-0.7-0.1
	c-6.2-0.6-11.9-8.2-15-19.3c-2.1,4.6-5.9,11.6-11.1,15c0.6,24.9-2,51.5-6.1,64.3c-1.8,5.4-3.5,7.7-5.7,7.5c-0.2,0-0.3,0-0.5-0.1
	c-1.7-0.4-3.6-2.2-5.9-5.5c-6.5-9.1-10.7-20.6-12.4-35.9c-1-9.1-1.4-19.9-0.9-32.3c-2.5,1.8-5,2.6-7.7,2.5c-0.1,0-0.3,0-0.4,0
	c-6.7-0.7-12.1-5.7-15.8-14.3c-2.5,7.2-7,14-13.4,13.4c-0.2,0-0.5,0-0.7-0.1c-7.1-1.1-13-6.6-16.4-14.9c-2,5.8-5.8,12.6-12.9,11.9
	c-4.7-0.4-9.4-3.5-13.4-8.5c-7.4-9.3-11.1-23.5-8.2-38c6.2-29.9,20.1-37,23.8-37.4c3.2-0.7,6.3,0.1,8.9,2.4c1.9,1.7,3.5,4.1,4.7,7
	c0.7-4,1.3-7,1.9-9.5c0.6-2.2,1.4-3.4,2.5-3.7c0,0,0,0,0,0c0.6-0.1,1.6,0,2.8,1.3c3.8,3.9,7.1,13.8,5.7,25.4
	c-0.6,4.5-1.6,10.3-2.7,16.3c-1.4,7.6-2.6,15.1-3,21.2c-0.5,7.8,0.5,14.1,2.4,16.7c0.6,0.8,1.3,1.3,2.2,1.3c0.1,0,0.2,0,0.3,0
	c4.3-0.1,8.4-9.4,10.9-24.2c-0.1-1-0.2-2-0.3-3.1c-3.1-38.1,7.9-83.2,21.8-112.7c1.5-3.2,3-4.6,4.5-5c1.6-0.4,3.2,0.4,4.4,1.5
	c6.1,5.3,8.7,14.5,8.1,27.6c-1.5,31.7-15,62.6-26.1,76.8c-1.4,17.8-0.1,31.5,3.1,36.9c0.8,1.4,1.8,2.2,2.9,2.4c0.2,0,0.3,0,0.5,0
	c3.6,0.1,7.6-4.8,11.1-13.8c4.9-55.5,26.3-125.1,31.2-139c0.7-2.1,1.8-3.4,3-3.6c0.1,0,0.3,0,0.4,0c1.3,0,2.4,1.1,3.1,3
	c3.6,10.3,2.7,23.2-2.2,41c-0.4,1.5-0.8,2.9-1.2,4.4c-5.1,18.2-12.2,44.7-16.6,68.3c5.8,3.3,9.4,12.8,11.2,29.4
	c0.2,1.6,0.3,3.3,0.5,5c3.7-5.8,7.4-15.8,9.8-26.9c0.2-2.1,0.4-4.2,0.7-6.2c1.8-12.1,6-32.8,11.4-54c-4.8-0.2-8.6-3.1-10.4-6.2
	c-1.3-2.2-1.7-4.1-1.3-5.7c0.3-1,1-2.3,2.8-2.5c0.2,0,0.4,0,0.5,0c0.8-0.1,1.6-0.2,2.4-0.3c3.2-0.4,6.6-1.2,10.6-2.4
	c4.7-17.2,8.3-28.5,10.7-34.1c1-2.9,2.3-3.6,3-3.7c0.1,0,0.2,0,0.3,0c0.7,0,1.9,0.4,2.8,3.2c2.6,8.2,2.5,17.4,0,29.6
	c5.8-0.1,8.5,4.4,10,7.9c0.9,2.2,1.1,4,0.6,5.6c-0.5,1.6-1.6,2.5-3.2,2.6c0,0-0.1,0-0.1,0c-1-0.1-2.1-0.1-3.3,0
	c-3.1,0.3-6.5,1.3-8.7,2.1c-0.2,0.6-0.3,1.2-0.5,1.7c-5.4,18.5-12.1,43.3-15.8,64.1c-2.1,11.8-1.6,23.2,1,29.2
	c1.1,2.4,2.4,3.8,3.9,3.9c0.1,0,0.2,0,0.3,0c4.5,0.1,9.9-10.3,14.8-27.8c-0.6-11.6,0.9-24.5,4.6-37.6c4.6-16.6,14-35.8,25.3-38.2
	c0.6-0.2,1.3-0.3,1.8-0.3c4.2-0.3,7.1,2.4,10.3,9.4c0.9,2,1.9,3.6,2.8,5.2c3.1,5.2,6,10.3,5.3,26.6c0,0.8,0,1.8,0,2.9
	c7.8-1.8,16.7-16.4,27.9-44.1c1.1-2.7,2.2-3.3,2.9-3.4c0,0,0,0,0,0c0.6,0,1.6,0.4,2.4,2.6c1.8,5.7,2.1,13.2,1,21.6
	c7.3-12,16.7-23.8,22.2-23.9c0.2,0,0.5,0,0.7,0.1c2.8,0.6,5.3,4.1,6.6,9.6c1.8,7.2,1.2,15.8-1.5,23.5c-2,5.9-4.8,13.2-7.7,21
	c-3.6,9.5-7.1,19.3-9.5,27.4c-3,10.2-3.9,19.2-2.7,23.5c0.5,1.8,1.4,2.7,2.8,2.7c0.1,0,0.1,0,0.2,0c4.3-0.2,10.7-12.3,18.8-34.1
	c1.1-9.4,3.3-19,6.7-28.6c12.2-34.7,26-43.3,29.8-45.1c1.9-0.9,3.6-1.3,5.2-1.2c2.1,0.1,4,1,5.4,2.7c3.9,4.8,6.3,9.5,8.1,15.7
	c2.3,7.6-1.5,25.7-10.1,40.7c-6.7,11.8-13.1,17.9-19,17.8c-3.9,0-7.5-2.6-10.9-7.9c-3.6,14.2-4.5,26.4-2.6,33.8
	c1,3.9,2.8,6.2,5.3,6.4c0.3,0,0.6,0,0.8,0c12.6-0.1,26.5-27.7,32.3-39.5c0.7-1.6,1.6-2.5,2.5-2.5c0.1,0,0.1,0,0.2,0
	c0.9,0.1,1.5,1.3,1.7,3.1c0.4,2.9-1.3,11.4-5.2,19.3C420.1,167.8,407.1,180.7,396.2,181.1z M87.8,131.1c-0.5,11.9-0.3,23,0.7,33.3
	c0.2,1.4-0.5,1.7-0.9,1.7c-0.1,0-0.1,0-0.2,0c-0.5,0-1.4-0.3-2.6-1.5c-3.2-3-7.4-7.3-9.3-17.2c-0.5-3-0.9-7.8-1.1-13.3
	c-2.3,0.6-4.5,1.2-6.7,1.7c-6.9,1.8-13.3,3.3-18.2,3.8c0.7,8.7,1.9,16.5,3.7,23.5c0.3,0.9,0,1.3-0.8,1.3c-0.1,0-0.1,0-0.2,0
	c-0.5-0.1-1.3-0.3-2.6-1.1c-5-3.3-8.3-6.8-11-12.9c-0.8-2-1.5-5-2.3-9.1c-0.1-0.8-0.3-1.6-0.4-2.4c-3.6-0.9-5.9-2.2-7.3-3.1
	c-1-0.6-2-1.3-1.9-2.1c0-0.6,0.9-0.9,1.9-1.1c0.2,0,0.5-0.1,0.7-0.1c0.9-0.1,1.7-0.2,2.5-0.2c1.1-0.1,2.2-0.2,3.3-0.3
	c-2-16.2-1.1-45.4,1.6-57.8c0.4-1.8,1.4-2.5,2.1-2.9c0.1,0,0.1,0,0.2-0.1c0.8-0.3,2.1-0.4,3.7,0.8c5.6,3.9,8,13.2,7.6,24.6
	c-0.2,5-0.5,10.6-0.7,16.3c-0.2,5-0.4,10.4-0.3,15.8c3.2-1,6.2-2.1,9.2-3.3c5.2-2,10.2-3.9,15.9-5.4c0.3-20.8,4.1-53.3,7.7-66.1
	c0.5-1.8,1.4-3,2.4-3.4c0.1,0,0.2-0.1,0.3-0.1c0.8-0.2,2.1-0.1,3.6,1.6c5.2,5.6,6.6,16.4,4.7,30.5c-0.6,4.6-1.3,9.7-1.9,15
	c-0.9,7-1.7,14.7-2.4,22.5c3.3,1.2,6.1,3.4,8.1,6.3c-0.1,1.5-0.2,2.9-0.3,4.3c-0.2,0-0.5,0-0.8,0c-1.9-0.2-3.9-0.2-6.1,0.1
	C88.9,130.9,88.3,131,87.8,131.1z M152.6,149.5c0.2-2.4,0.5-5.2,0.9-8.1c1.1-0.4,2.2-1,3.3-1.6c-2.6,4.7-3.8,9.2-3.1,13.4
	c-0.4,1-0.9,1.8-1.3,2.5C152.4,154,152.4,152,152.6,149.5z M187.9,147.8c-0.2-1.6-0.6-3.2-1.3-4.8c0.7,0.2,1.3,0.3,2,0.5
	c-0.1,1.2-0.3,2.5-0.4,3.7C188.1,147.4,188,147.6,187.9,147.8z M193.5,107.8c0.2-0.4,0.3-0.7,0.5-1.1c-0.1,0.4-0.1,0.7-0.2,1.1
	C193.7,107.8,193.6,107.8,193.5,107.8z M217.7,120.1c1.9,0.2,3.9,0.1,5.9-0.5c-1,4.1-1.2,7.8-0.4,11.4c-0.4,0-0.9,0-1.3,0.1
	c-1.2-3.1-2.8-6.1-4.7-8.6C217.3,121.7,217.5,120.9,217.7,120.1z M229.2,87.1c-1.1-0.6-2.2-1.1-3.3-1.5c0.4-1.6,0.8-3.1,1.2-4.6
	C227.5,82.9,228.2,84.9,229.2,87.1z M263.1,83.4c0.7-2.3,1.3-4.5,1.9-6.7c1.7-0.5,3.5-0.9,5.3-1c1-0.1,1.8-0.1,2.5,0
	c0.1,0,0.2,0,0.4,0c0,0,0.1,0,0.1,0c-1.2,2.3-2.4,4.8-3.5,7.5C267.6,82.8,265.4,82.9,263.1,83.4z M354.6,64.8c0-0.3-0.1-0.5-0.1-0.8
	c0.1,0.1,0.3,0.3,0.4,0.4C354.8,64.5,354.7,64.6,354.6,64.8z M434.2,181.3c-0.6,0-1.2-0.2-1.7-0.5c-1.2-0.9-2-2.9-2.2-5.7
	c-0.3-4,0.5-9.2,2.1-13.7c2.5-7,6.4-11.4,9.4-11.4c0.6,0,1.2,0.2,1.7,0.6c1.2,0.9,2,2.8,2.3,5.4c0.3,3.8-0.5,8.8-2.3,13.8
	C441,176.6,437.2,181.2,434.2,181.3z M523.8,157.6c0.4-1.8,1.5-5.4,4.4-10.6c1.2-2.1,2.6-4.4,4.1-6.8c2.5-0.2,4.8-1.1,6.8-2.4
	C529.4,152.5,525.3,156.6,523.8,157.6z M545.3,124.6c-0.1-0.9-0.3-1.9-0.6-2.7c2.2-3.3,4.4-6.5,6.3-9.5c0.3,0.1,0.5,0.2,0.8,0.3
	C549.3,116.6,547.2,120.6,545.3,124.6z M567.2,150.1c0-0.8-0.1-1.6-0.3-2.4c5.3,0,11.5-3.2,18.5-8.8c-8.8,9.2-15.1,14.1-19.5,16.6
	C566.8,153.8,567.2,152,567.2,150.1z M461.9,118.4c-2.3,5.3-4.4,10.3-6.2,14.8c-0.8,0.1-1.6,0.3-2.4,0.6c-0.4,0.1-0.8,0.1-1.4,0.2
	c2.5-5.8,2.2-11.4-0.8-17.4C454.8,118.4,458.3,119,461.9,118.4z M382.1,99.5c-0.1-0.6-0.2-1.2-0.3-1.7c0.4-1.3,0.8-2.6,1.1-3.9
	c0.4,0.1,0.8,0.2,1.2,0.2C383.4,95.8,382.8,97.6,382.1,99.5z M249.1,33.7c-1.2,4.1-2.6,8.7-4,14c-2.7,0.7-5.1,1.2-7.3,1.6
	c-0.7,0.1-1.4,0.2-2.1,0.3c1.2-5.1,2.1-9.9,2.6-14.4c1.3,1.2,3,2,4.9,2C245.6,37.1,247.8,35.7,249.1,33.7z M265.7,182.3
	c-2.6,0.2-4.9,1.1-7.2,2.2c3.8-2.6,7-7.1,9.6-11.6c1.9,3.8,3.9,6.6,5.8,8.8c0.4,0.8,0.8,1.7,1.3,2.5
	C271.7,183.1,268.8,182.1,265.7,182.3z M309.5,171.5c0.5,0,0.9,0,1.4,0c0.5,3.7,1.4,7.3,2.7,10.7c-2.2,0.2-4.3,0.8-6.6,1.8
	C309,179.7,310,175.7,309.5,171.5z M336.1,155.6c0.2-2.5,0.3-4.9,0.5-7.4c1.2,0,2.4,0,3.7,0c-0.3,2.6-0.5,5.1-0.5,7.4
	C338.6,155.6,337.4,155.6,336.1,155.6z M370,183.9c0.4-0.4,0.7-0.8,1.1-1.2c0.4,0.9,0.9,1.7,1.5,2.5
	C371.7,184.7,370.8,184.3,370,183.9z M475.5,145.6c0.7-1.3,1.3-2.7,2-4c0.3,0.1,0.6,0.2,0.9,0.3c-0.8,2.1-1.7,4.2-2.4,6.3
	C475.9,147.4,475.7,146.5,475.5,145.6z M508.9,134.9c0.3-0.5,0.7-1.1,1-1.6c0,0.1-0.1,0.1-0.1,0.2c-0.3,0.5-0.5,1-0.7,1.5
	C509,134.9,508.9,134.9,508.9,134.9z"/>
<path d="M568.6,127.4c4.4,0.3,10.6-5.6,16.4-11.6c9.2-9.5,14.7-18.1,14.1-19.5c-0.1-0.2-0.3-0.4-0.7-0.5c-0.2,0-0.5-0.1-0.9,0
	       c-5,0.4-18.6,9.7-30.5,27.2c0,0,0,0,0,0c-0.6,0.8-1.1,1.7-1.7,2.5C566.3,126.7,567.3,127.3,568.6,127.4z"/>
</g>
</svg>
